<?xml version="1.0" encoding="UTF-8" standalone="no"?>
<!-- Created with Inkscape (http://www.inkscape.org/) -->

<svg
   xmlns:dc="http://purl.org/dc/elements/1.1/"
   xmlns:cc="http://creativecommons.org/ns#"
   xmlns:rdf="http://www.w3.org/1999/02/22-rdf-syntax-ns#"
   xmlns:svg="http://www.w3.org/2000/svg"
   xmlns="http://www.w3.org/2000/svg"
   xmlns:xlink="http://www.w3.org/1999/xlink"
   xmlns:sodipodi="http://sodipodi.sourceforge.net/DTD/sodipodi-0.dtd"
   xmlns:inkscape="http://www.inkscape.org/namespaces/inkscape"
   width="361.92517"
   height="338.61325"
   id="svg3002"
   version="1.1"
   inkscape:version="0.47 r22583"
   sodipodi:docname="logo.svg"
   style="enable-background:new">
  <defs
     id="defs3004">
    <linearGradient
       inkscape:collect="always"
       id="linearGradient5193">
      <stop
         style="stop-color:#1a1a1a;stop-opacity:1;"
         offset="0"
         id="stop5195" />
      <stop
         style="stop-color:#1a1a1a;stop-opacity:0;"
         offset="1"
         id="stop5197" />
    </linearGradient>
    <linearGradient
       id="linearGradient5289">
      <stop
         style="stop-color:#72b7d9;stop-opacity:1;"
         offset="0"
         id="stop5291" />
      <stop
         style="stop-color:#72b7d9;stop-opacity:0;"
         offset="1"
         id="stop5293" />
    </linearGradient>
    <inkscape:path-effect
       bendpath4-nodetypes="cc"
       bendpath2-nodetypes="cc"
       bendpath1-nodetypes="cc"
       bendpath3-nodetypes="cc"
       bendpath4="M 38.58312,73.4541 164.29241,190.62515"
       bendpath3="m 143.13776,147.20149 77.66233,40.47334"
       bendpath2="M 140.45793,-47.53785 290.95806,160.45436"
       bendpath1="M 17.87811,83.30845 114.28823,-51.05959"
       xx="true"
       yy="true"
       is_visible="true"
       id="path-effect3839"
       effect="envelope" />
    <inkscape:path-effect
       effect="envelope"
       id="path-effect3682"
       is_visible="false"
       yy="true"
       xx="true"
       bendpath1="M -58.317662,889.05197 49.546858,738.71979"
       bendpath2="M 78.825758,742.65994 247.20667,975.36352"
       bendpath3="M 81.823978,960.53608 168.7133,1005.818"
       bendpath4="M -35.152712,878.02684 105.49199,1009.1189"
       bendpath3-nodetypes="cc"
       bendpath1-nodetypes="cc"
       bendpath2-nodetypes="cc"
       bendpath4-nodetypes="cc" />
    <inkscape:path-effect
       effect="envelope"
       id="path-effect3680"
       is_visible="false"
       yy="true"
       xx="true"
       bendpath1="M 492.65534,180.19672 611.56063,73.503773"
       bendpath2="m 719.75629,118.5853 0,311.63238"
       bendpath3="m 545.25045,403.16876 84.34279,22.54077"
       bendpath4="m 548.25589,118.5853 0,311.63238"
       bendpath1-nodetypes="cc"
       bendpath3-nodetypes="cc" />
    <inkscape:path-effect
       effect="knot"
       id="path-effect3678"
       is_visible="true"
       interruption_width="3"
       prop_to_stroke_width="true"
       add_stroke_width="true"
       add_other_stroke_width="true"
       switcher_size="15"
       crossing_points_vector="" />
    <inkscape:path-effect
       effect="ruler"
       id="path-effect3676"
       is_visible="false"
       unit="px"
       mark_distance="20"
       mark_length="14"
       minor_mark_length="7"
       major_mark_steps="5"
       shift="0"
       offset="0"
       mark_dir="left"
       border_marks="both" />
    <inkscape:path-effect
       effect="vonkoch"
       id="path-effect3674"
       is_visible="true"
       ref_path="m 548.25589,274.40149 171.5004,0"
       generator="m 548.25589,430.21768 57.1668,0 m 57.1668,0 57.1668,0"
       similar_only="false"
       nbgenerations="1"
       drawall="true"
       maxComplexity="1000" />
    <inkscape:path-effect
       effect="interpolate"
       id="path-effect3672"
       is_visible="true"
       trajectory="M 0,0 0,0"
       equidistant_spacing="true"
       steps="5" />
    <inkscape:path-effect
       effect="rough_hatches"
       id="path-effect3670"
       is_visible="true"
       direction="634.00609,269.40149 , 42.875101,0"
       dist_rdm="75;1"
       growth="0"
       do_bend="true"
       bender="634.00609,274.40149 , 5,0"
       bottom_edge_variation="31.163238;1"
       top_edge_variation="31.163238;1"
       bottom_tgt_variation="0;1"
       top_tgt_variation="0;1"
       scale_bf="1"
       scale_bb="1"
       scale_tf="1"
       scale_tb="1"
       top_smth_variation="0;1"
       bottom_smth_variation="0;1"
       fat_output="true"
       stroke_width_top="1"
       stroke_width_bottom="1"
       front_thickness="1"
       back_thickness="0.25" />
    <inkscape:path-effect
       effect="gears"
       id="path-effect3668"
       is_visible="false"
       teeth="10"
       phi="5" />
    <inkscape:path-effect
       effect="envelope"
       id="path-effect3666"
       is_visible="false"
       yy="true"
       xx="true"
       bendpath1="m 136.20071,39.26119 234.34188,0"
       bendpath2="m 370.54259,39.26119 0,241.73694"
       bendpath3="m 248.90453,280.99813 121.63806,0"
       bendpath4="m 248.90453,39.26119 0,241.73694"
       bendpath1-nodetypes="cc" />
    <inkscape:path-effect
       effect="spiro"
       id="path-effect3664"
       is_visible="true" />
    <inkscape:path-effect
       effect="skeletal"
       id="path-effect3648"
       is_visible="true"
       pattern="m 4.9975703,196.42034 c 15.8939697,59.71492 50.0738667,96.5181 64.3010467,157.40189 -1.26118,-57.42659 -36.70226,-102.82521 -39.56085,-159.96671 -6.15427,-30.02109 26.54262,-21.34617 34.79011,-8.67178 6.09781,10.45204 18.99095,8.27545 9.88561,-6.48622 -14.56215,-11.9546 -5.24421,-31.29152 9.40071,-21.69992 9.48942,8.16501 21.531833,-1.52859 8.35092,-11.4081 -13.79962,-10.22348 -33.14857,-10.20142 -42.90039,-28.87061 -0.17432,-10.49596 19.08114,-24.762411 1.2495,-24.589591 -12.00866,1.37511 -30.151977,-5.59613 -24.31945,-25.78974 C 10.46722,48.875389 11.3588,84.612699 12.00177,97.850769 11.18649,125.98354 -2.7687997,91.934929 -10.29549,86.203099 -26.26678,69.422369 -41.69037,49.459179 -61.70742,42.189848 c -18.660669,4.9897 6.47451,27.333281 11.59485,37.546921 12.55971,17.44649 25.88786,35.448111 31.92948,58.987481 -11.82671,-11.11921 -28.55956,-12.74631 -41.88105,-8.04372 2.67347,15.02341 26.47584,5.49669 31.14921,24.66431 10.38252,21.3075 -11.54285,24.95374 -20.22962,13.20503 -11.54151,-7.53154 -36.996349,23.15922 -16.86876,27.08712 19.04377,-9.07669 52.63952,-11.00614 71.0108803,0.78335 z"
       copytype="single_stretched"
       prop_scale="2"
       scale_y_rel="false"
       spacing="0"
       normal_offset="0"
       tang_offset="0"
       prop_units="false"
       vertical_pattern="true"
       fuse_tolerance="0" />
    <inkscape:path-effect
       effect="skeletal"
       id="path-effect3639"
       is_visible="true"
       pattern="m 83.138883,158.8524 c 15.89397,59.71492 50.073867,96.5181 64.301047,157.40189 -1.26118,-57.42659 -36.70226,-102.82521 -39.56085,-159.96671 -6.15427,-30.02109 26.54262,-21.34617 34.79011,-8.67178 6.09781,10.45204 18.99095,8.27545 9.88561,-6.48622 -14.56215,-11.9546 -5.24421,-31.29152 9.40071,-21.69992 9.48942,8.16501 21.53183,-1.52859 8.35092,-11.4081 C 156.50681,97.79808 137.15786,97.82014 127.40604,79.15095 127.23172,68.65499 146.48718,54.38854 128.65554,54.56136 116.64688,55.93647 98.503563,48.96523 104.33609,28.77162 88.608533,11.30745 89.500113,47.04476 90.143083,60.28283 89.327803,88.4156 75.372513,54.36699 67.845823,48.63516 51.874533,31.85443 36.450943,11.89124 16.433893,4.6219096 c -18.6606696,4.9897 6.47451,27.3332804 11.59485,37.5469204 12.55971,17.44649 25.88786,35.44811 31.92948,58.98748 C 48.131513,90.0371 31.398663,88.41 18.077173,93.11259 c 2.67347,15.02341 26.47584,5.49669 31.14921,24.66431 10.38252,21.3075 -11.54285,24.95374 -20.22962,13.20503 -11.54151,-7.53154 -36.9963496,23.15922 -16.86876,27.08712 19.04377,-9.07669 52.63952,-11.00614 71.01088,0.78335 z"
       copytype="single"
       prop_scale="1"
       scale_y_rel="false"
       spacing="0"
       normal_offset="0"
       tang_offset="0"
       prop_units="false"
       vertical_pattern="false"
       fuse_tolerance="0" />
    <inkscape:path-effect
       effect="sketch"
       id="path-effect4257"
       is_visible="true"
       nbiter_approxstrokes="5"
       strokelength="100"
       strokelength_rdm="0.3;1"
       strokeoverlap="0.3"
       strokeoverlap_rdm="0.3;1"
       ends_tolerance="0.1;1"
       parallel_offset="5;1"
       tremble_size="5;1"
       tremble_frequency="1"
       nbtangents="5"
       tgt_places_rdmness="1;1"
       tgtscale="10"
       tgtlength="100"
       tgtlength_rdm="0.3;1" />
    <inkscape:path-effect
       effect="skeletal"
       id="path-effect3606"
       is_visible="true"
       pattern="M 0,0 1,0"
       copytype="single_stretched"
       prop_scale="1"
       scale_y_rel="false"
       spacing="0"
       normal_offset="0"
       tang_offset="0"
       prop_units="false"
       vertical_pattern="false"
       fuse_tolerance="0" />
    <inkscape:path-effect
       effect="bend_path"
       id="path-effect3604"
       is_visible="true"
       bendpath="m 205.66059,145.95814 109.50699,0"
       prop_scale="1"
       scale_y_rel="false"
       vertical="false" />
    <inkscape:path-effect
       effect="envelope"
       id="path-effect3602"
       is_visible="true"
       yy="true"
       xx="true"
       bendpath1="m 205.66059,77.980705 109.50699,0"
       bendpath2="m 315.16758,77.980705 0,135.954875"
       bendpath3="m 205.66059,213.93558 109.50699,0"
       bendpath4="m 205.66059,77.980705 0,135.954875" />
    <inkscape:perspective
       sodipodi:type="inkscape:persp3d"
       inkscape:vp_x="0 : 526.18109 : 1"
       inkscape:vp_y="0 : 1000 : 0"
       inkscape:vp_z="744.09448 : 526.18109 : 1"
       inkscape:persp3d-origin="372.04724 : 350.78739 : 1"
       id="perspective3010" />
    <inkscape:perspective
       id="perspective3080"
       inkscape:persp3d-origin="0.5 : 0.33333333 : 1"
       inkscape:vp_z="1 : 0.5 : 1"
       inkscape:vp_y="0 : 1000 : 0"
       inkscape:vp_x="0 : 0.5 : 1"
       sodipodi:type="inkscape:persp3d" />
    <inkscape:perspective
       id="perspective3174"
       inkscape:persp3d-origin="0.5 : 0.33333333 : 1"
       inkscape:vp_z="1 : 0.5 : 1"
       inkscape:vp_y="0 : 1000 : 0"
       inkscape:vp_x="0 : 0.5 : 1"
       sodipodi:type="inkscape:persp3d" />
    <inkscape:perspective
       id="perspective3631"
       inkscape:persp3d-origin="0.5 : 0.33333333 : 1"
       inkscape:vp_z="1 : 0.5 : 1"
       inkscape:vp_y="0 : 1000 : 0"
       inkscape:vp_x="0 : 0.5 : 1"
       sodipodi:type="inkscape:persp3d" />
    <inkscape:perspective
       id="perspective3725"
       inkscape:persp3d-origin="0.5 : 0.33333333 : 1"
       inkscape:vp_z="1 : 0.5 : 1"
       inkscape:vp_y="0 : 1000 : 0"
       inkscape:vp_x="0 : 0.5 : 1"
       sodipodi:type="inkscape:persp3d" />
    <inkscape:perspective
       id="perspective4102"
       inkscape:persp3d-origin="0.5 : 0.33333333 : 1"
       inkscape:vp_z="1 : 0.5 : 1"
       inkscape:vp_y="0 : 1000 : 0"
       inkscape:vp_x="0 : 0.5 : 1"
       sodipodi:type="inkscape:persp3d" />
    <inkscape:perspective
       id="perspective4170"
       inkscape:persp3d-origin="0.5 : 0.33333333 : 1"
       inkscape:vp_z="1 : 0.5 : 1"
       inkscape:vp_y="0 : 1000 : 0"
       inkscape:vp_x="0 : 0.5 : 1"
       sodipodi:type="inkscape:persp3d" />
    <inkscape:perspective
       id="perspective4267"
       inkscape:persp3d-origin="0.5 : 0.33333333 : 1"
       inkscape:vp_z="1 : 0.5 : 1"
       inkscape:vp_y="0 : 1000 : 0"
       inkscape:vp_x="0 : 0.5 : 1"
       sodipodi:type="inkscape:persp3d" />
    <radialGradient
       inkscape:collect="always"
       xlink:href="#linearGradient5289"
       id="radialGradient5297"
       cx="144.36517"
       cy="71.478615"
       fx="144.36517"
       fy="71.478615"
       r="107.08788"
       gradientTransform="matrix(0.97384106,0,0,0.7651521,8.5191557,16.786772)"
       gradientUnits="userSpaceOnUse" />
    <inkscape:perspective
       id="perspective3662"
       inkscape:persp3d-origin="0.5 : 0.33333333 : 1"
       inkscape:vp_z="1 : 0.5 : 1"
       inkscape:vp_y="0 : 1000 : 0"
       inkscape:vp_x="0 : 0.5 : 1"
       sodipodi:type="inkscape:persp3d" />
    <linearGradient
       inkscape:collect="always"
       xlink:href="#linearGradient5193"
       id="linearGradient5201"
       x1="6.6758285"
       y1="236.00661"
       x2="355.28909"
       y2="236.00661"
       gradientUnits="userSpaceOnUse" />
  </defs>
  <sodipodi:namedview
     id="base"
     pagecolor="#ffffff"
     bordercolor="#666666"
     borderopacity="1.0"
     inkscape:pageopacity="0.0"
     inkscape:pageshadow="2"
     inkscape:zoom="1.3880142"
     inkscape:cx="180.96259"
     inkscape:cy="167.86572"
     inkscape:document-units="px"
     inkscape:current-layer="g3632"
     showgrid="false"
     inkscape:snap-bbox="false"
     inkscape:snap-smooth-nodes="false"
     inkscape:snap-midpoints="false"
     inkscape:object-paths="false"
     inkscape:window-width="1280"
     inkscape:window-height="725"
     inkscape:window-x="0"
     inkscape:window-y="25"
     inkscape:window-maximized="1"
     showguides="true"
     inkscape:guide-bbox="true"
     inkscape:bbox-paths="false"
     units="px"
     borderlayer="false"
     inkscape:showpageshadow="true"
     inkscape:snap-page="false">
    <inkscape:grid
       type="xygrid"
       id="grid3652"
       empspacing="5"
       visible="true"
       enabled="true"
       snapvisiblegridlinesonly="true" />
  </sodipodi:namedview>
  <metadata
     id="metadata3007">
    <rdf:RDF>
      <cc:Work
         rdf:about="">
        <dc:format>image/svg+xml</dc:format>
        <dc:type
           rdf:resource="http://purl.org/dc/dcmitype/StillImage" />
        <dc:title />
      </cc:Work>
    </rdf:RDF>
  </metadata>
  <g
     inkscape:groupmode="layer"
     id="layer2"
     inkscape:label="whale"
     style="display:inline"
     transform="translate(-3.7765891e-8,-1.6768646e-4)">
    <g
       id="g3632"
       transform="matrix(0.97384106,0,0,1,1.1064007,-7.7463226)">
      <path
         id="path3970"
         d="m 264.3729,143.74896 c -22.68736,1.42824 -45.65606,10.98556 -64.3247,23.46534 -44.28579,29.60452 -64.06257,132.17042 -116.78764,124.57266 -7.32482,-1.05551 -10.12697,-3.85243 -10.8899,-8.4324 -10.468607,-53.63038 36.54237,-58.9366 20.43144,-68.24982 -30.668201,-17.72832 -27.655476,-3.601 -42.59514,1.0119 -0.26554,-0.15859 -0.56751,-0.35687 -1.0136,-0.60706 -4.07239,-2.28403 -15.716492,-9.49828 -24.51342,-5.82361 -24.48223231,10.22676 -27.9071684,16.78415 -14.24694,21.60297 46.890309,16.54116 42.447164,38.50168 46.6233,56.36528 0.51165,5.22313 1.3272,10.9147 2.33171,17.39536 1.33237,8.59594 11.11086,20.81939 18.75086,24.97822 40.91001,22.26934 85.61907,11.4186 132.06047,7.84778 40.66991,-3.12706 86.64205,7.54716 121.61987,-13.43792 15.51128,-9.30604 26.21072,-27.25591 30.65142,-44.79107 7.34061,-28.98611 6.23553,-63.68439 -9.31959,-89.22099 -14.49427,-23.795 -42.3627,-41.46843 -69.87967,-45.83901 -6.20979,-0.98632 -12.54601,-1.23754 -18.89847,-0.83763 z"
         style="fill:#ffffff;fill-opacity:1;stroke:#000000;stroke-width:5.37207651;stroke-linecap:round;stroke-linejoin:round;stroke-miterlimit:4;stroke-opacity:1;stroke-dasharray:none"
         sodipodi:nodetypes="csscscssscsssssssc" />
      <path
         transform="matrix(0.37229035,0.01804071,-0.01804071,0.37229035,141.37931,117.28173)"
         d="m 486.89352,432.12851 c 0,8.92627 -7.23617,16.16244 -16.16244,16.16244 -8.92627,0 -16.16244,-7.23617 -16.16244,-16.16244 0,-8.92627 7.23617,-16.16244 16.16244,-16.16244 8.92627,0 16.16244,7.23617 16.16244,16.16244 z"
         sodipodi:ry="16.162441"
         sodipodi:rx="16.162441"
         sodipodi:cy="432.12851"
         sodipodi:cx="470.73108"
         id="path4009"
         style="fill:#ffffff;fill-opacity:1;stroke:#000000;stroke-width:14.41289043;stroke-linecap:butt;stroke-linejoin:round;stroke-miterlimit:4;stroke-opacity:1;stroke-dasharray:none"
         sodipodi:type="arc" />
      <path
         id="path4327"
         d="m 248.02677,174.99443 c 1.44774,4.02987 7.30572,4.03129 12.56875,2.00393 2.97704,-1.14678 5.72176,-3.8352 5.89585,-6.80239"
         style="fill:none;stroke:#000000;stroke-width:3.57523012;stroke-linecap:round;stroke-linejoin:miter;stroke-miterlimit:4;stroke-opacity:1;stroke-dasharray:none" />
      <path
         style="fill:#ffffff;fill-opacity:1;stroke:#000000;stroke-width:4.46903753;stroke-linecap:round;stroke-linejoin:round;stroke-miterlimit:4;stroke-opacity:1;stroke-dasharray:none;stroke-dashoffset:0"
         d="m 173.70429,94.273711 c 9.59763,5.335765 17.41552,10.269479 24.44082,15.143809 7.0253,4.87433 13.29528,9.66966 19.64278,15.03244 3.17375,2.68138 6.36172,5.51113 9.61178,8.61894 3.25006,3.10782 6.56577,6.49259 9.91646,10.33047 3.35069,3.83787 6.7446,8.12618 9.98769,13.11477 3.24309,4.98859 6.35341,10.67141 8.78317,17.43529 -0.35327,-3.9557 -1.06213,-7.63105 -2.00341,-11.0831 -0.94128,-3.45205 -2.1158,-6.68054 -3.43862,-9.72975 -2.64566,-6.0984 -5.86656,-11.48593 -9.28663,-16.41294 -3.42007,-4.927 -7.04962,-9.39015 -10.74606,-13.55645 -3.69644,-4.16631 -7.46521,-8.03401 -11.28204,-11.72386 -7.63365,-7.37969 -15.44505,-14.060119 -23.80513,-20.730507 -8.36008,-6.670389 -17.27236,-13.329161 -27.36269,-20.469917 -5.84742,-2.493752 -10.01894,-4.844367 -12.81702,-7.207002 -2.79808,-2.362635 -4.22512,-4.72308 -4.65165,-6.885143 -0.42653,-2.162063 0.14554,-4.115305 1.33188,-5.50204 1.18633,-1.386736 2.98858,-2.197645 5.00326,-2.057441 1.69658,0.241358 2.69753,-0.197586 3.10447,-1.040827 0.40693,-0.843241 0.21735,-2.090756 -0.49178,-3.416953 -1.41826,-2.652393 -4.93805,-5.637553 -9.85394,-5.907944 -1.56927,1.199327 -3.86115,1.115632 -6.41076,0.290355 -2.54961,-0.825276 -5.36712,-2.39322 -7.96308,-4.277948 -2.59596,-1.884728 -4.97785,-4.090737 -6.48725,-6.271692 -1.5094,-2.180954 -2.12913,-4.353193 -1.08004,-6.10149 1.15881,-0.946288 1.1742,-2.438249 0.42848,-4.075415 -0.74572,-1.637166 -2.26518,-3.413578 -4.1759,-4.857316 -1.91073,-1.443737 -4.21828,-2.548602 -6.39837,-2.8615 -2.18009,-0.3128987 -4.21942,0.170584 -5.49525,1.8004 -1.30093,1.715409 -1.67606,3.866622 -1.80293,6.111615 -0.12686,2.244993 -0.0139,4.587539 -0.2756,6.742446 -0.2617,2.154907 -0.88937,4.119379 -2.44297,5.658208 -1.5536,1.538829 -4.0073,2.641334 -8.11447,3.218876 -2.912241,-0.517211 -6.762548,-1.781881 -11.074389,-3.109208 -2.15592,-0.663664 -4.423676,-1.344558 -6.699991,-1.97092 -2.276315,-0.626362 -4.56136,-1.198144 -6.708327,-1.655857 -4.293933,-0.915426 -8.03885,-1.370459 -9.732299,-0.99809 -0.846725,0.186185 -1.175743,0.577296 -0.848155,1.224919 0.327588,0.647624 1.316004,1.550665 2.989352,2.783912 2.712036,1.669203 4.742754,3.561041 5.825039,5.358472 1.082286,1.797432 1.231669,3.496321 0.195634,4.831761 -0.518017,0.667719 -1.333349,1.245681 -2.499696,1.711972 -1.166346,0.466291 -2.682194,0.820444 -4.637312,1.054336 -1.955119,0.233893 -4.346876,0.346691 -7.331513,0.353649 -2.984638,0.007 -6.557504,-0.09337 -10.99481,-0.245528 -1.692393,1.082038 -2.3201,1.980967 -2.106768,2.713319 0.213333,0.732352 1.263121,1.300865 2.883762,1.761074 1.62064,0.460208 3.809318,0.81394 6.314417,1.121322 2.505098,0.307382 5.325612,0.569339 8.252237,0.830054 5.85325,0.521429 12.093861,1.063193 17.57852,1.685843 5.484658,0.62265 10.246164,1.311193 13.494289,1.835946 3.543963,0.72324 6.05683,1.476518 7.8369,2.170843 1.78006,0.694326 2.82206,1.333056 3.3285,1.900409 1.01288,1.134705 -0.11142,1.980594 -2.13659,2.73014 -2.02517,0.749546 -4.970817,1.424735 -7.632215,2.177116 -2.661398,0.752381 -5.02962,1.573832 -5.858803,2.474331 -5.659948,3.407345 -12.062334,6.866431 -17.056194,11.100648 -2.49693,2.117108 -4.641106,4.420226 -6.252786,7.010418 -1.61168,2.590191 -2.687234,5.464443 -3.200199,8.793681 0.894827,1.730738 1.791604,3.058037 2.747272,4.014196 0.955667,0.956159 1.968957,1.542239 3.053976,1.827751 2.170038,0.571024 4.63949,-0.06035 7.241559,-1.1588 2.602069,-1.098447 5.322802,-2.650026 7.866647,-3.990781 2.543844,-1.340755 4.908165,-2.476458 6.792314,-2.860195 6.281952,-2.641294 12.747229,-5.007074 19.818779,-6.211522 7.07155,-1.204448 14.76181,-1.255906 23.4431,0.918479 -3.67362,1.846195 -5.53143,5.460251 -5.99129,9.834577 -0.45986,4.374326 0.47595,9.522428 2.56437,14.457748 2.86885,0.58548 4.47982,-0.0416 5.50813,-1.28022 1.02831,-1.23863 1.47329,-3.09581 1.99223,-4.94375 0.51894,-1.84795 1.11088,-3.687112 2.43873,-4.814284 1.32785,-1.127173 3.40094,-1.54464 6.83685,-0.458046 3.72272,0.410213 6.71428,1.784221 9.00474,3.52063 2.29046,1.73642 3.87396,3.83574 4.75267,5.81536 0.8787,1.97962 1.0538,3.83993 0.53811,5.21868 -0.51569,1.37874 -1.71608,2.28281 -3.6417,2.42046 -1.17088,0.93822 -0.65518,3.27755 0.70949,5.98662 1.36467,2.70906 3.5458,5.78553 5.6584,8.43446 1.05631,1.32446 2.09809,2.54648 3.06248,3.58229 0.96439,1.0358 1.85184,1.88651 2.64814,2.46242 0.7963,0.5759 1.50522,0.87805 2.12996,0.79389 0.62474,-0.0841 1.17123,-0.55404 1.5843,-1.5576 -0.63374,-3.28101 -1.38034,-6.92412 -2.05122,-10.7103 -0.67087,-3.78618 -1.25909,-7.71243 -1.56014,-11.44722 -0.30105,-3.73479 -0.31556,-7.27581 0.13661,-10.22245 0.45217,-2.94664 1.37175,-5.298375 2.92168,-6.605348 0,3e-6 10e-6,6e-6 10e-6,9e-6 0,0 0,0 0,0 z"
         id="path3837"
         sodipodi:nodetypes="ccccccccccccccccccccc"
         inkscape:path-effect="#path-effect3839"
         inkscape:original-d="m -39.13921,147.12731 c 40.48695,30.81297 81.2988,37.49196 121.29185,69.90667 -29.81462,-36.71266 -68.36285,-53.29435 -99.07249,-89.01508 -26.5838,-16.41803 -0.93829,-22.33537 10.82499,-18.25623 9.24311,3.71909 16.52967,-4.2062 3.15461,-9.20975 -15.50684,-0.42274 -19.20969,-17.70378 -4.8421,-18.85968 10.29425,0.51925 13.23222,-11.86548 -0.32858,-11.63602 -14.13684,0.31817 -26.70999,10.1017 -42.4784,2.88317 -5.41273,-6.7384 -0.0923,-25.73908 -11.6025,-16.62359 -7.11598,6.95747 -22.43587,11.58393 -28.83812,-4.49452 -19.04655,-3.41767 -0.4231,19.37521 6.6789,27.66042 13.67386,18.70879 -12.59343,3.61 -20.38266,3.68226 -18.86,-2.85011 -38.97058,-8.0466 -55.65964,-2.66796 -9.61734,12.66691 18.01137,14.50822 26.49837,18.56579 16.9773,5.00563 34.73466,9.98431 50.54895,22.24359 -13.30597,-1.26052 -25.01028,6.12955 -31.30007,15.91401 9.32402,8.42118 19.99476,-9.79255 32.71187,0.31423 17.51068,8.61602 5.09171,22.05748 -6.4899,18.8022 -11.30908,0.92884 -12.36894,33.74168 2.70494,26.13402 7.80304,-15.51845 28.67904,-33.73565 46.57998,-35.34354 l 0,1e-5 z" />
      <path
         transform="matrix(0.37229035,0.01804071,-0.01804071,0.37229035,174.23889,109.28173)"
         d="m 486.89352,432.12851 c 0,8.92627 -7.23617,16.16244 -16.16244,16.16244 -8.92627,0 -16.16244,-7.23617 -16.16244,-16.16244 0,-8.92627 7.23617,-16.16244 16.16244,-16.16244 8.92627,0 16.16244,7.23617 16.16244,16.16244 z"
         sodipodi:ry="16.162441"
         sodipodi:rx="16.162441"
         sodipodi:cy="432.12851"
         sodipodi:cx="470.73108"
         id="path4009-2"
         style="fill:#ffffff;fill-opacity:1;stroke:#000000;stroke-width:14.41289043;stroke-linecap:butt;stroke-linejoin:round;stroke-miterlimit:4;stroke-opacity:1;stroke-dasharray:none;display:inline;enable-background:new"
         sodipodi:type="arc" />
      <path
         style="fill:url(#linearGradient5201);fill-opacity:1;fill-rule:evenodd"
         d="m 264.55323,139.22768 c -6.18153,0.42486 -12.77097,-0.26688 -18.68677,1.53096 3.46189,8.39069 6.48366,17.44565 6.9794,26.67931 1.58555,1.30077 3.78608,-2.29894 4.93061,-3.28707 0.21068,-1.90989 4.23159,-4.94908 4.39026,-1.576 -0.45379,8.34289 -11.27487,10.75351 -17.9438,9.00568 -2.05174,-0.62181 -5.01012,-5.23241 -1.71108,-5.87621 2.27581,0.54853 4.52468,4.14341 6.95688,2.52159 -5.03028,-8.13525 -7.82835,-17.79378 -14.54416,-24.90068 -16.80894,6.16765 -33.77815,13.83975 -46.71692,26.54422 -18.69654,19.97662 -30.28382,45.16924 -44.45343,68.2954 -11.01114,18.00527 -22.77744,38.06977 -43.14924,46.59445 -8.894633,3.20766 -20.179611,3.97298 -28.120207,-1.89119 -6.092278,-7.09871 -4.284911,-17.44478 -4.584558,-26.11578 -0.293555,-13.26272 5.94341,-25.62028 14.986109,-35.01021 2.795202,-3.51147 6.92771,-6.68146 8.600416,-10.71675 -6.930123,-4.35715 -14.645441,-9.27576 -23.099547,-9.23082 -6.980794,1.38834 -11.953655,8.72147 -18.971777,9.15796 -8.107678,-4.0996 -18.121208,-10.33008 -27.04401,-4.659 -5.361355,3.12319 -12.366252,5.22511 -15.6955776,10.69811 2.5456979,3.88646 8.4303196,4.33712 12.3214076,6.64002 15.959877,6.60653 32.302093,17.79553 36.466818,35.6191 3.996661,13.91205 3.916474,28.6735 8.08259,42.50677 4.346003,10.62148 13.652044,18.54406 24.337828,22.40161 17.173568,7.72741 36.271318,9.50834 54.888138,8.30683 29.24212,-0.64199 58.17424,-6.17269 87.46894,-5.53363 21.06461,-0.56927 42.28889,0.84227 63.23219,-1.88096 19.47524,-3.4924 38.82349,-13.48652 48.70838,-31.3089 10.89122,-19.3993 13.82134,-42.38186 12.96817,-64.32301 -1.26252,-22.38613 -8.47701,-45.43793 -25.09492,-61.23018 -17.21495,-16.98121 -40.82874,-29.58697 -65.50214,-28.96162 z m 69.65887,123.03999 c 7.71989,0.008 11.25523,11.32218 4.57038,15.51227 -5.77167,4.94492 -15.27449,-1.37532 -13.26085,-8.62293 0.73166,-4.1219 4.51978,-7.13437 8.69047,-6.88934 z m -31.88007,7.9475 c 8.23241,0.12869 10.95864,12.94839 3.44466,16.48038 -6.66323,3.58045 -14.9823,-4.17675 -11.77491,-11.05446 1.30763,-3.258 4.84851,-5.48926 8.33025,-5.42592 z"
         id="path5191"
         transform="matrix(1.0268616,0,0,1,-1.1361204,7.7464903)" />
    </g>
    <path
       style="opacity:0.81818183;fill:url(#radialGradient5297);fill-opacity:1;fill-rule:evenodd"
       d="m 231.3383,130.93638 c -13.47389,-14.70516 -28.59713,-27.12975 -48.23634,-39.628897 -12.79675,-8.14434 -14.22018,-8.471549 -16.56833,-3.808585 -2.53889,5.04175 -2.34716,15.050212 0.62867,32.817042 l 0.42235,2.52159 -2.67915,-2.97597 c -1.47353,-1.63679 -3.75174,-4.81126 -5.06269,-7.05438 l -2.38354,-4.0784 1.8073,-1.9513 c 3.66541,-3.95745 3.07048,-8.911843 -1.70958,-14.236897 -3.32196,-3.700704 -8.28502,-6.003195 -14.15282,-6.565862 -3.94798,-0.37857 -4.5931,-0.246518 -6.3012,1.289864 -1.04662,0.941388 -2.62012,3.63327 -3.49669,5.981949 -0.87655,2.348686 -1.93765,4.388053 -2.35798,4.531928 -1.01295,0.346718 -2.3483,-5.270083 -2.3483,-9.877522 0,-4.126492 1.10368,-6.800254 3.79197,-9.18644 2.64539,-2.348103 2.36541,-4.197908 -0.81013,-5.352293 -4.13175,-1.501984 -22.50506,-1.287555 -28.23971,0.329577 -6.713475,1.893158 -17.157372,6.003073 -23.15304,9.111255 -7.949452,4.121031 -10.215537,4.745362 -12.251592,3.375455 -2.490116,-1.675415 -2.736954,-3.531527 -1.015957,-7.639555 3.059341,-7.30266 19.130759,-19.234909 30.572768,-22.698795 7.583161,-2.295682 7.911181,-2.466127 8.371641,-4.350017 0.72658,-2.972682 -0.009,-4.27021 -3.40135,-5.997958 -4.172045,-2.124993 -14.57012,-3.975032 -31.716662,-5.64307 -11.736891,-1.141779 -12.850066,-1.355939 -9.4717,-1.822222 2.10556,-0.29061 5.168616,-0.717933 6.806788,-0.949606 4.264854,-0.603143 7.196089,-3.335349 7.190189,-6.701977 -0.005,-2.826968 -1.756623,-6.122608 -4.354265,-8.192239 L 69.614174,20.904474 72.0698,21.35369 c 1.350595,0.24707 7.267717,1.865582 13.149161,3.596695 11.26028,3.314291 13.913356,3.661313 17.792269,2.327225 5.34533,-1.838437 7.28962,-5.142529 7.9963,-13.588821 0.2818,-3.368121 0.80319,-6.6912145 1.15862,-7.3846512 1.34321,-2.6205296 6.64976,-0.9788582 9.98249,3.0882523 1.43491,1.7510999 1.68263,2.5319359 1.13598,3.5807819 -2.59505,4.979152 2.75588,12.920934 12.19419,18.098424 3.59121,1.970001 5.15034,2.384187 9.50238,2.524326 3.81067,0.122707 5.67955,0.530494 6.97183,1.52124 2.63641,2.021236 2.5815,2.929204 -0.20969,3.466898 -2.96813,0.571783 -5.76027,3.653153 -6.37898,7.039777 -1.06219,5.814069 3.633,11.537317 14.19909,17.30813 7.12781,3.892945 27.00207,18.989733 39.59528,30.077156 9.77017,8.601957 23.96464,23.155317 29.44418,30.188637 4.32564,5.55222 10.08308,14.30508 9.68099,14.71769 -0.15616,0.16023 -3.28168,-2.98034 -6.94559,-6.97907 z"
       id="path3009" />
  </g>
</svg>
